<?xml version="1.0" encoding="UTF-8"?>
<svg version="1.1" xmlns="http://www.w3.org/2000/svg" width="256" height="278">
<path d="M0 0 C10.91701702 8.23626324 19.06827361 18.87075894 21.625 32.625 C21.8146879 35.02627643 21.78226607 37.21358687 21.625 39.625 C22.32882813 39.34785156 23.03265625 39.07070313 23.7578125 38.78515625 C38.82052663 33.25953919 53.03604227 33.5152143 67.75 40.125 C81.28312162 47.46071079 90.62237437 58.82523606 95.1171875 73.58984375 C98.57478084 87.446814 96.90976022 101.5407269 90.21875 114.16796875 C87.22380697 118.78517259 83.46579426 122.70508825 79.625 126.625 C79.08101562 127.21410156 78.53703125 127.80320313 77.9765625 128.41015625 C76.625 129.625 76.625 129.625 74.625 129.625 C74.625 130.285 74.625 130.945 74.625 131.625 C75.429375 131.9653125 75.429375 131.9653125 76.25 132.3125 C85.87698066 137.63267352 92.08491762 147.35871127 95.7421875 157.53125 C97.1136653 162.85225404 97.13430125 168.28351417 97.1875 173.75 C97.20224365 174.75111816 97.2169873 175.75223633 97.23217773 176.78369141 C97.10554937 186.02073772 94.54870457 194.15953565 89.625 202 C89.150625 202.77085937 88.67625 203.54171875 88.1875 204.3359375 C80.63624163 215.39853101 70.29387289 221.72436385 57.625 225.625 C56.84511719 225.86992187 56.06523437 226.11484375 55.26171875 226.3671875 C46.00045645 228.83911491 36.28018187 228.47615305 27.375 225.0625 C26.66859375 224.79308594 25.9621875 224.52367187 25.234375 224.24609375 C24.43773437 223.93865234 24.43773437 223.93865234 23.625 223.625 C23.625 222.965 23.625 222.305 23.625 221.625 C22.965 221.625 22.305 221.625 21.625 221.625 C21.40585938 222.65238281 21.18671875 223.67976562 20.9609375 224.73828125 C17.44087299 240.45020616 11.03764141 253.25578964 -2.75 262.5 C-12.00349614 268.34585946 -21.05432032 270.28432289 -31.875 270.125 C-32.92558594 270.14046875 -33.97617188 270.1559375 -35.05859375 270.171875 C-51.11862425 270.09246817 -64.24893873 261.75106127 -75.375 250.625 C-76.13005161 249.14796473 -76.83407246 247.64430136 -77.5 246.125 C-77.85320312 245.3309375 -78.20640625 244.536875 -78.5703125 243.71875 C-79.375 241.625 -79.375 241.625 -79.375 239.625 C-80.035 239.295 -80.695 238.965 -81.375 238.625 C-83.74318784 233.22553173 -84.85206548 228.4818666 -85.375 222.625 C-86.28765625 223.058125 -86.28765625 223.058125 -87.21875 223.5 C-99.41156701 228.66401662 -112.96338176 227.84784036 -125.375 223.625 C-133.99814206 220.06045424 -141.05277155 214.42414704 -147.375 207.625 C-147.375 206.965 -147.375 206.305 -147.375 205.625 C-148.035 205.625 -148.695 205.625 -149.375 205.625 C-150.035 203.645 -150.695 201.665 -151.375 199.625 C-152.035 199.625 -152.695 199.625 -153.375 199.625 C-159.00901429 184.82271891 -159.00901429 184.82271891 -159.375 177.625 C-159.41367188 176.92246094 -159.45234375 176.21992188 -159.4921875 175.49609375 C-159.87116804 163.38977099 -156.15882937 150.10326841 -148.375 140.625 C-147.715 140.625 -147.055 140.625 -146.375 140.625 C-146.148125 140.0475 -145.92125 139.47 -145.6875 138.875 C-144.04990316 136.06769113 -141.90235142 134.63392036 -139.375 132.625 C-139.045 131.635 -138.715 130.645 -138.375 129.625 C-139.035 129.625 -139.695 129.625 -140.375 129.625 C-140.375 128.965 -140.375 128.305 -140.375 127.625 C-141.48875 127.2846875 -141.48875 127.2846875 -142.625 126.9375 C-146.85466804 124.9187948 -148.74903861 122.03341313 -150.625 117.8125 C-150.8725 117.090625 -151.12 116.36875 -151.375 115.625 C-152.035 115.625 -152.695 115.625 -153.375 115.625 C-156.375 109 -156.375 109 -156.375 105.625 C-157.035 105.295 -157.695 104.965 -158.375 104.625 C-161.59561596 92.88203922 -161.5992109 75.86048058 -155.85546875 64.984375 C-155.12263672 63.81648438 -155.12263672 63.81648438 -154.375 62.625 C-153.91738281 61.82578125 -153.45976562 61.0265625 -152.98828125 60.203125 C-144.73470338 46.7260499 -132.17570913 38.75775053 -116.96484375 35.03515625 C-105.38327602 33.20097131 -95.06225991 35.24341394 -84.375 39.625 C-84.14425781 38.65820312 -83.91351563 37.69140625 -83.67578125 36.6953125 C-79.56684723 20.04297814 -72.667858 6.89660788 -57.69140625 -2.45703125 C-39.83514908 -12.78379482 -16.97442566 -11.18998596 0 0 Z M-33.2421875 20.546875 C-40.85387292 26.05572126 -48.04876729 33.29450617 -50.375 42.625 C-51.07869608 48.2679469 -51.24456797 53.94468525 -51.375 59.625 C-40.97946631 67.68073257 -40.97946631 67.68073257 -28.79296875 70.23046875 C-25.6951697 68.62675889 -23.12934188 66.75830433 -20.375 64.625 C-18.45901985 63.79008945 -16.5423887 62.95667069 -14.625 62.125 C-12.12583695 60.76097861 -12.12583695 60.76097861 -10.375 58.625 C-8.41616015 50.41604744 -10.14714074 42.75780772 -14.375 35.625 C-15.00535156 34.47451172 -15.00535156 34.47451172 -15.6484375 33.30078125 C-17.32866141 30.33299422 -17.32866141 30.33299422 -19.375 27.625 C-20.365 27.625 -21.355 27.625 -22.375 27.625 C-23.035 26.305 -23.695 24.985 -24.375 23.625 C-25.035 23.625 -25.695 23.625 -26.375 23.625 C-26.375 22.965 -26.375 22.305 -26.375 21.625 C-28.87278851 19.9077704 -30.41964362 19.15331777 -33.2421875 20.546875 Z M27.625 72.625 C26.58472656 73.08261719 25.54445312 73.54023437 24.47265625 74.01171875 C20.70507131 77.4692144 20.51949349 79.97270329 20.1315918 84.95532227 C19.61314451 94.47777205 19.61314451 94.47777205 23.43554688 102.83984375 C28.34427125 106.83954509 34.4058307 110.23851078 40.625 111.625 C48.05231542 110.68892679 53.75086903 105.28443166 58.3046875 99.5859375 C63.6793361 91.60347123 64.15730957 84.05870842 63.625 74.625 C52.05587137 69.24400994 39.54632446 66.57402471 27.625 72.625 Z M-127.375 75.625 C-128.82747742 85.35322088 -125.85317531 93.39660365 -120.375 101.3125 C-116.01348929 106.67610835 -110.42436337 109.43039238 -104.375 112.625 C-97.445 108.665 -90.515 104.705 -83.375 100.625 C-83.25125 97.098125 -83.1275 93.57125 -83 89.9375 C-82.94537598 88.83446533 -82.89075195 87.73143066 -82.83447266 86.5949707 C-82.63388019 81.46371177 -82.63388019 81.46371177 -84.58129883 76.88354492 C-86.30959742 75.32451169 -86.30959742 75.32451169 -89.375 73.625 C-90.11621094 73.17511719 -90.85742188 72.72523437 -91.62109375 72.26171875 C-102.16196276 67.69588779 -118.62284886 66.87284886 -127.375 75.625 Z M-18.8125 99.5625 C-24.54979556 103.21694898 -28.41195527 104.99147604 -35.375 104.625 C-37.625 103.625 -37.625 103.625 -39.375 102.625 C-40.365 102.625 -41.355 102.625 -42.375 102.625 C-42.375 101.965 -42.375 101.305 -42.375 100.625 C-44.85 100.13 -44.85 100.13 -47.375 99.625 C-47.375 98.965 -47.375 98.305 -47.375 97.625 C-48.365 97.295 -49.355 96.965 -50.375 96.625 C-50.41238281 97.69878906 -50.44976562 98.77257812 -50.48828125 99.87890625 C-50.55399112 101.3151362 -50.62043668 102.75133262 -50.6875 104.1875 C-50.71005859 104.89197266 -50.73261719 105.59644531 -50.75585938 106.32226562 C-51.0130589 111.39611074 -51.90379044 115.15144876 -54.375 119.625 C-56.57421875 121.4453125 -56.57421875 121.4453125 -59.0625 122.75 C-59.94035156 123.22953125 -60.81820312 123.7090625 -61.72265625 124.203125 C-63.03556641 124.90695313 -63.03556641 124.90695313 -64.375 125.625 C-65.92472014 126.57025466 -67.46730578 127.52738121 -69 128.5 C-70.11375 129.20125 -71.2275 129.9025 -72.375 130.625 C-68.49598284 133.69190765 -64.25988646 136.12788428 -59.9765625 138.57617188 C-56.60066412 140.58545084 -54.79679699 141.97147486 -53.375 145.625 C-53.05615234 147.91503906 -53.05615234 147.91503906 -52.9609375 150.390625 C-52.92226562 151.28007812 -52.88359375 152.16953125 -52.84375 153.0859375 C-52.8128125 154.00632813 -52.781875 154.92671875 -52.75 155.875 C-52.71132812 156.81085938 -52.67265625 157.74671875 -52.6328125 158.7109375 C-52.53875156 161.01543054 -52.45310601 163.31992013 -52.375 165.625 C-47.60910662 163.85686253 -43.20581425 161.46101557 -38.81054688 158.92773438 C-34.16327781 156.45774938 -30.34801466 156.15014351 -25.375 157.625 C-22.73331896 158.77354256 -20.31930349 160.16898957 -17.875 161.6875 C-17.24335938 162.06455078 -16.61171875 162.44160156 -15.9609375 162.83007812 C-14.42485266 163.74940163 -12.89880518 164.68546282 -11.375 165.625 C-11.43300781 164.32304687 -11.49101562 163.02109375 -11.55078125 161.6796875 C-11.59769773 159.95316099 -11.64319586 158.22659552 -11.6875 156.5 C-11.7503418 155.21609375 -11.7503418 155.21609375 -11.81445312 153.90625 C-11.8993077 149.49381215 -11.70341878 147.1689436 -9.375 143.3125 C-6.11014832 140.01114687 -2.14065098 137.8929426 1.9375 135.75 C2.67806641 135.3478125 3.41863281 134.945625 4.18164062 134.53125 C5.9900268 133.55122136 7.80669507 132.58650085 9.625 131.625 C9.625 130.965 9.625 130.305 9.625 129.625 C8.573125 129.2125 7.52125 128.8 6.4375 128.375 C3.0207879 126.91756949 0.47410453 125.02424592 -2.375 122.625 C-3.7053125 121.8825 -3.7053125 121.8825 -5.0625 121.125 C-7.69186493 119.41946599 -8.23045754 118.48730728 -9.375 115.625 C-9.69384766 113.33496094 -9.69384766 113.33496094 -9.7890625 110.859375 C-9.84707031 109.52519531 -9.84707031 109.52519531 -9.90625 108.1640625 C-9.9371875 107.24367188 -9.968125 106.32328125 -10 105.375 C-10.05800781 103.97121094 -10.05800781 103.97121094 -10.1171875 102.5390625 C-10.21124844 100.23456946 -10.29689399 97.93007987 -10.375 95.625 C-13.66414975 95.625 -16.11266681 97.83637714 -18.8125 99.5625 Z M-115.375 155.625 C-123.49143166 164.43479516 -126.82183231 172.68496417 -126.48046875 184.53515625 C-126.44566406 185.22480469 -126.41085938 185.91445312 -126.375 186.625 C-117.49359843 191.84935386 -107.33776576 194.04484992 -97.18725586 191.49755859 C-92.31237938 189.98503072 -88.10234395 188.18682679 -84.375 184.625 C-82.90005657 180.58839123 -82.97069667 176.88377177 -83.125 172.625 C-83.08632812 171.55765625 -83.04765625 170.4903125 -83.0078125 169.390625 C-83.04815863 166.14679623 -83.25836126 163.67489004 -84.375 160.625 C-88.08417468 157.12922989 -92.37104582 155.40476003 -97.06542969 153.578125 C-99.51163128 152.56861432 -101.27765295 151.21609086 -103.375 149.625 C-107.87060947 149.625 -111.9248727 153.00592526 -115.375 155.625 Z M22.56298828 159.43164062 C18.98124636 163.48535308 18.76918327 167.7560772 18.8125 173 C18.81411133 173.95084473 18.81572266 174.90168945 18.81738281 175.88134766 C19.1484529 179.94233076 19.61367121 182.6103284 22.54541016 185.55175781 C29.2387608 190.20763391 35.6219505 192.03402243 43.75 192.0625 C44.49121094 192.06564209 45.23242188 192.06878418 45.99609375 192.07202148 C52.62659135 191.92959175 60.7326206 190.5173794 65.625 185.625 C66.40026844 176.7094129 63.61571677 167.96428937 58.625 160.625 C56.20863062 157.70613411 56.20863062 157.70613411 53.625 155.625 C52.635 155.625 51.645 155.625 50.625 155.625 C50.295 154.635 49.965 153.645 49.625 152.625 C40.68670394 146.10245963 30.12347717 153.42001785 22.56298828 159.43164062 Z M-52.375 202.625 C-54.40301883 207.36085242 -53.74258264 210.75521661 -52.375 215.625 C-52.16101563 216.58792969 -51.94703125 217.55085938 -51.7265625 218.54296875 C-49.11919567 227.69456816 -42.76759363 234.71978094 -34.8125 239.75 C-33.1109375 240.678125 -33.1109375 240.678125 -31.375 241.625 C-25.85911365 238.86705683 -21.85124719 235.79480352 -18.375 230.625 C-18.375 229.965 -18.375 229.305 -18.375 228.625 C-17.715 228.625 -17.055 228.625 -16.375 228.625 C-12.31137888 219.40152508 -11.16561517 211.67547195 -11.375 201.625 C-12.2825 201.17125 -13.19 200.7175 -14.125 200.25 C-15.95017122 199.33741439 -17.76910864 198.41105531 -19.5625 197.4375 C-21.50020782 196.42047205 -21.50020782 196.42047205 -24.375 196.625 C-24.705 195.635 -25.035 194.645 -25.375 193.625 C-33.74828601 188.139054 -45.99002684 196.84027949 -52.375 202.625 Z " fill="#3E7A75" transform="translate(159.375,8.375)"/>
<path d="M0 0 C10.29642713 5.26261831 17.09658918 15.68215203 20.9296875 26.34375 C22.3011653 31.66475404 22.32180125 37.09601417 22.375 42.5625 C22.38974365 43.56361816 22.4044873 44.56473633 22.41967773 45.59619141 C22.29304937 54.83323772 19.73620457 62.97203565 14.8125 70.8125 C14.338125 71.58335937 13.86375 72.35421875 13.375 73.1484375 C5.82374163 84.21103101 -4.51862711 90.53686385 -17.1875 94.4375 C-17.96738281 94.68242187 -18.74726563 94.92734375 -19.55078125 95.1796875 C-28.81204355 97.65161491 -38.53231813 97.28865305 -47.4375 93.875 C-48.14390625 93.60558594 -48.8503125 93.33617187 -49.578125 93.05859375 C-50.10921875 92.85363281 -50.6403125 92.64867187 -51.1875 92.4375 C-51.1875 91.7775 -51.1875 91.1175 -51.1875 90.4375 C-51.8475 90.4375 -52.5075 90.4375 -53.1875 90.4375 C-53.40664062 91.46488281 -53.62578125 92.49226563 -53.8515625 93.55078125 C-57.37162701 109.26270616 -63.77485859 122.06828964 -77.5625 131.3125 C-86.81599614 137.15835946 -95.86682032 139.09682289 -106.6875 138.9375 C-108.26337891 138.96070313 -108.26337891 138.96070313 -109.87109375 138.984375 C-125.93112425 138.90496817 -139.06143873 130.56356127 -150.1875 119.4375 C-150.94255161 117.96046473 -151.64657246 116.45680136 -152.3125 114.9375 C-152.66570312 114.1434375 -153.01890625 113.349375 -153.3828125 112.53125 C-154.1875 110.4375 -154.1875 110.4375 -154.1875 108.4375 C-154.8475 108.1075 -155.5075 107.7775 -156.1875 107.4375 C-159.31373723 100.93349462 -159.53162792 95.504473 -159.26171875 88.375 C-159.23527786 87.34310547 -159.20883698 86.31121094 -159.18159485 85.24804688 C-159.09436693 81.97724014 -158.98503098 78.70761102 -158.875 75.4375 C-158.81168564 73.20967658 -158.74982154 70.98181144 -158.68945312 68.75390625 C-158.53891277 63.31450904 -158.37025397 57.87590512 -158.1875 52.4375 C-158.8475 52.1075 -159.5075 51.7775 -160.1875 51.4375 C-159.8575 44.1775 -159.5275 36.9175 -159.1875 29.4375 C-161.6625 28.4475 -161.6625 28.4475 -164.1875 27.4375 C-165.57106495 26.78879555 -166.94680452 26.12302557 -168.3125 25.4375 C-168.97507812 25.1075 -169.63765625 24.7775 -170.3203125 24.4375 C-172.1875 23.4375 -172.1875 23.4375 -175.1875 21.4375 C-175.875 18.8125 -175.875 18.8125 -176.1875 16.4375 C-173.23226573 14.36631017 -170.21971822 12.39413893 -167.1875 10.4375 C-166.53346191 10.01452637 -165.87942383 9.59155273 -165.20556641 9.15576172 C-163.00463863 7.74782628 -160.78619309 6.37165079 -158.5625 5 C-157.84650635 4.53867676 -157.1305127 4.07735352 -156.39282227 3.60205078 C-152.85018839 1.45304606 -150.80712735 0.44086024 -146.5859375 0.41796875 C-142.7768424 1.56069728 -139.81006187 3.08162803 -136.4375 5.1875 C-135.32890625 5.86296875 -134.2203125 6.5384375 -133.078125 7.234375 C-129.97491138 9.599527 -128.5985974 10.81388054 -127.1875 14.4375 C-126.84860553 17.8865113 -126.90460567 21.28889804 -127 24.75 C-127.02030273 26.14702148 -127.02030273 26.14702148 -127.04101562 27.57226562 C-127.07623118 29.86127646 -127.12547901 32.14908458 -127.1875 34.4375 C-126.1253125 33.79941406 -125.063125 33.16132813 -123.96875 32.50390625 C-122.54208483 31.66855625 -121.11497767 30.8339608 -119.6875 30 C-118.99140625 29.57912109 -118.2953125 29.15824219 -117.578125 28.72460938 C-112.68400559 25.89236434 -108.88252441 24.5073776 -103.1875 24.4375 C-100.2109375 25.51171875 -100.2109375 25.51171875 -97.5625 27.125 C-96.6240625 27.68574219 -95.685625 28.24648437 -94.71875 28.82421875 C-91.84323926 30.6569131 -88.98712694 32.48993344 -86.1875 34.4375 C-80.0000678 38.71110421 -73.66636877 42.53157065 -67.0625 46.125 C-66.20785156 46.59744141 -65.35320312 47.06988281 -64.47265625 47.55664062 C-59.79043922 50.12071186 -55.11966793 52.39976809 -50.1875 54.4375 C-48.76326901 55.1304983 -47.34489458 55.83591824 -45.9375 56.5625 C-37.70861025 60.80860711 -27.23731409 60.92641426 -18.3984375 58.3203125 C-15.58679103 57.1325764 -12.87291135 55.88627684 -10.1875 54.4375 C-9.97555124 49.45670405 -10.55071512 45.1942501 -11.75 40.35546875 C-12.1875 38.4375 -12.1875 38.4375 -12.1875 36.4375 C-12.8475 36.1075 -13.5075 35.7775 -14.1875 35.4375 C-15.20101664 33.77901823 -16.19870795 32.11084039 -17.1875 30.4375 C-19.95972965 26.47556447 -19.95972965 26.47556447 -24.1875 24.4375 C-25.1875 23.4375 -26.1875 22.4375 -27.1875 21.4375 C-28.074375 20.921875 -28.96125 20.40625 -29.875 19.875 C-30.638125 19.400625 -31.40125 18.92625 -32.1875 18.4375 C-32.1875 17.7775 -32.1875 17.1175 -32.1875 16.4375 C-28.2368839 14.17647707 -24.28586622 11.9161581 -20.33447266 9.65649414 C-18.98996055 8.88748257 -17.6455589 8.11827783 -16.30126953 7.34887695 C-14.37040668 6.24379641 -12.43914926 5.13940829 -10.5078125 4.03515625 C-9.90566925 3.69033707 -9.303526 3.34551788 -8.68313599 2.99024963 C-2.37959415 -0.61189564 -2.37959415 -0.61189564 0 0 Z M-127.1875 71.4375 C-129.21551883 76.17335242 -128.55508264 79.56771661 -127.1875 84.4375 C-126.97351563 85.40042969 -126.75953125 86.36335938 -126.5390625 87.35546875 C-123.93169567 96.50706816 -117.58009363 103.53228094 -109.625 108.5625 C-107.9234375 109.490625 -107.9234375 109.490625 -106.1875 110.4375 C-100.67161365 107.67955683 -96.66374719 104.60730352 -93.1875 99.4375 C-93.1875 98.7775 -93.1875 98.1175 -93.1875 97.4375 C-92.5275 97.4375 -91.8675 97.4375 -91.1875 97.4375 C-87.12387888 88.21402508 -85.97811517 80.48797195 -86.1875 70.4375 C-87.095 69.98375 -88.0025 69.53 -88.9375 69.0625 C-90.76267122 68.14991439 -92.58160864 67.22355531 -94.375 66.25 C-96.31270782 65.23297205 -96.31270782 65.23297205 -99.1875 65.4375 C-99.5175 64.4475 -99.8475 63.4575 -100.1875 62.4375 C-108.56078601 56.951554 -120.80252684 65.65277949 -127.1875 71.4375 Z " fill="#33889A" transform="translate(234.1875,139.5625)"/>
<path d="M0 0 C0.08636719 0.97839844 0.17273437 1.95679687 0.26171875 2.96484375 C1.110361 10.88290954 2.19206138 17.43889039 7 24 C7.59296875 24.82242188 8.1859375 25.64484375 8.796875 26.4921875 C11.26446996 29.3010456 13.68770019 31.05355737 16.875 33 C17.88304687 33.639375 18.89109375 34.27875 19.9296875 34.9375 C23.05092655 36.39378557 23.05092655 36.39378557 26.2578125 34.6875 C27.16273437 34.130625 28.06765625 33.57375 29 33 C29.66 33 30.32 33 31 33 C33.40809229 31.70644443 35.76833755 30.38133086 38.125 29 C38.78371094 28.6184375 39.44242187 28.236875 40.12109375 27.84375 C41.74962748 26.89967248 43.37510657 25.95032932 45 25 C44.98839844 24.23816406 44.97679688 23.47632812 44.96484375 22.69140625 C44.90952706 16.36159678 45.1634074 10.27444451 46 4 C52.12939105 5.63245088 57.26593887 8.87663418 62.6875 12.0625 C64.5650098 13.15994463 66.4438578 14.25510399 68.32421875 15.34765625 C69.15010498 15.83242432 69.97599121 16.31719238 70.8269043 16.81665039 C73.07163117 18.12164051 73.07163117 18.12164051 76 19 C76.08164159 21.6881249 76.14079668 24.373723 76.1875 27.0625 C76.21263672 27.81466797 76.23777344 28.56683594 76.26367188 29.34179688 C76.33289159 34.67171478 75.62280326 38.31975329 73 43 C70.94921875 44.8203125 70.94921875 44.8203125 68.6875 46.125 C65.97817689 47.72316965 63.69485348 49.26611615 61.3125 51.34375 C57.36816101 54.70028796 52.87125224 56.96272437 48.3125 59.375 C41.00250256 63.31181871 33.89581329 67.36588694 27 72 C27.33 73.32 27.66 74.64 28 76 C27.21625 75.71125 26.4325 75.4225 25.625 75.125 C19.9536537 74.92943633 16.32781768 77.49391985 12 81 C3.91605937 89.92853144 1.6363346 99.26072381 1 111 C1.86625 111.28875 2.7325 111.5775 3.625 111.875 C5.70033883 112.56677961 7.76606199 113.2894012 9.8125 114.0625 C17.9957826 116.46934782 24.73429707 116.11234631 33 114 C36.63 112.02 40.26 110.04 44 108 C44 120.54 44 133.08 44 146 C28.16283246 152.09121828 15.03649756 153.38889326 -0.86328125 146.81640625 C-8.20812113 143.14918068 -14.42247521 137.9982665 -20 132 C-20 131.34 -20 130.68 -20 130 C-20.66 130 -21.32 130 -22 130 C-22.66 128.02 -23.32 126.04 -24 124 C-24.66 124 -25.32 124 -26 124 C-31.63401429 109.19771891 -31.63401429 109.19771891 -32 102 C-32.03867187 101.29746094 -32.07734375 100.59492188 -32.1171875 99.87109375 C-32.49616804 87.76477099 -28.78382937 74.47826841 -21 65 C-20.34 65 -19.68 65 -19 65 C-18.7525 64.40574219 -18.505 63.81148437 -18.25 63.19921875 C-16.80937117 60.66461241 -15.3603228 59.50030435 -13 57.8125 C-11.948125 57.04873047 -11.948125 57.04873047 -10.875 56.26953125 C-9 55 -9 55 -7 54 C-7.48210938 53.45472656 -7.96421875 52.90945312 -8.4609375 52.34765625 C-16.27474846 43.01892276 -17.06049149 34.01442892 -16 22 C-14.49283274 15.0056609 -8.75196896 0 0 0 Z " fill="#2C8090" transform="translate(32,84)"/>
<path d="M0 0 C10.45442127 8.52182579 16.78643851 20.7962999 19 34 C19.90797891 47.98636737 17.75704793 61.49840515 8.8515625 72.703125 C2.08101756 80.39590364 -4.81785298 85.15666903 -13.8125 89.9375 C-19.8255448 93.14795709 -25.76048009 96.35413672 -31.44799805 100.11938477 C-33 101 -33 101 -35 101 C-35 101.66 -35 102.32 -35 103 C-35.63091553 103.24830566 -36.26183105 103.49661133 -36.91186523 103.75244141 C-43.74620763 106.59057529 -50.83503159 109.56230977 -56 115 C-58.78359573 121.94779524 -57.96144029 129.71677383 -57 137 C-61.17626668 136.39888157 -64.22294966 134.9757645 -67.88671875 132.91015625 C-68.98951172 132.29076172 -70.09230469 131.67136719 -71.22851562 131.03320312 C-72.94071289 130.05770508 -72.94071289 130.05770508 -74.6875 129.0625 C-75.8519026 128.4089509 -77.01661336 127.75595052 -78.18164062 127.10351562 C-86.71777081 122.28222919 -86.71777081 122.28222919 -89 120 C-89.67666664 116.8101711 -89.79181751 113.56245991 -90 110.3125 C-90.08894531 109.42626953 -90.17789063 108.54003906 -90.26953125 107.62695312 C-90.56699061 102.95407412 -90.45364234 99.86341564 -87.453125 96.1328125 C-84.25303013 92.94446886 -80.72240014 90.67073355 -76.75 88.5625 C-76.12609375 88.21251953 -75.5021875 87.86253906 -74.859375 87.50195312 C-70.31571062 85 -70.31571062 85 -68 85 C-68 84.34 -68 83.68 -68 83 C-67.09121094 82.64292969 -66.18242187 82.28585938 -65.24609375 81.91796875 C-59.61463448 79.50448621 -54.37126346 76.35408205 -49.0625 73.3125 C-47.99708984 72.70599609 -46.93167969 72.09949219 -45.83398438 71.47460938 C-43.22075795 69.98635935 -40.60951457 68.49474574 -38 67 C-38.33 66.01 -38.66 65.02 -39 64 C-38.01 63.95875 -37.02 63.9175 -36 63.875 C-29.39464618 62.90087711 -24.70885356 58.17159964 -20.6875 53.125 C-15.14906926 45.13340564 -14.42508648 37.61574929 -14 28 C-14.68707031 27.79503906 -15.37414062 27.59007812 -16.08203125 27.37890625 C-16.98308594 27.10949219 -17.88414062 26.84007812 -18.8125 26.5625 C-19.70582031 26.29566406 -20.59914063 26.02882812 -21.51953125 25.75390625 C-23.35473055 25.19612127 -25.18033726 24.60655425 -27 24 C-35.05406199 23.46168223 -42.62747979 23.43832523 -50 27 C-50.85094238 27.40025391 -51.70188477 27.80050781 -52.57861328 28.21289062 C-55.2265147 29.77454838 -55.2265147 29.77454838 -55.65942383 32.54370117 C-55.6829895 34.02833862 -55.6829895 34.02833862 -55.70703125 35.54296875 C-55.73603516 36.61611328 -55.76503906 37.68925781 -55.79492188 38.79492188 C-55.80072266 39.91447266 -55.80652344 41.03402344 -55.8125 42.1875 C-55.83763672 43.31865234 -55.86277344 44.44980469 -55.88867188 45.61523438 C-55.94764384 48.4105053 -55.98385033 51.20420675 -56 54 C-54.82497925 54.46188721 -54.82497925 54.46188721 -53.6262207 54.93310547 C-50.20026381 56.32489051 -47.1854806 58.12618788 -44 60 C-47 61 -47 61 -49.44119263 60.24685669 C-56.44811888 56.67712165 -56.44811888 56.67712165 -57.90960693 52.23577881 C-58.22747499 48.74218276 -58.22899133 45.37363113 -58.1171875 41.8671875 C-58.11252472 40.59779327 -58.10786194 39.32839905 -58.10305786 38.02053833 C-58.08357873 35.33919945 -58.04560201 32.6664403 -57.97412109 29.98681641 C-57.88338184 26.55870786 -57.8540598 23.13363393 -57.84664726 19.70443535 C-57.83564902 16.42500833 -57.78890242 13.14627294 -57.7421875 9.8671875 C-57.7314621 8.63797577 -57.72073669 7.40876404 -57.70968628 6.14230347 C-57.67771149 5.00076813 -57.64573669 3.85923279 -57.61279297 2.68310547 C-57.58087357 1.17802933 -57.58087357 1.17802933 -57.54830933 -0.35745239 C-56.85853497 -3.68178317 -55.63562744 -4.92251178 -53 -7 C-52.34 -7 -51.68 -7 -51 -7 C-51 -7.66 -51 -8.32 -51 -9 C-32.27874574 -14.03596049 -15.73033177 -11.82202403 0 0 Z " fill="#315A58" transform="translate(237,55)"/>
<path d="M0 0 C3.421875 1.671875 3.421875 1.671875 6.75 3.75 C7.85859375 4.42546875 8.9671875 5.1009375 10.109375 5.796875 C13.21258862 8.162027 14.5889026 9.37638054 16 13 C16.33889447 16.4490113 16.28289433 19.85139804 16.1875 23.3125 C16.16719727 24.70952148 16.16719727 24.70952148 16.14648438 26.13476562 C16.11126882 28.42377646 16.06202099 30.71158458 16 33 C17.07378906 32.36191406 18.14757812 31.72382813 19.25390625 31.06640625 C20.6897566 30.23117304 22.12597419 29.39657093 23.5625 28.5625 C24.26697266 28.14162109 24.97144531 27.72074219 25.69726562 27.28710938 C30.21964348 24.68205301 33.78339707 23.37702124 39 23 C39 23.66 39 24.32 39 25 C37.99710937 25.24621094 36.99421875 25.49242187 35.9609375 25.74609375 C31.80762293 26.93350232 28.31903967 28.86104139 24.625 31.0625 C23.99722656 31.42666016 23.36945313 31.79082031 22.72265625 32.16601562 C19.68534434 33.84236108 19.68534434 33.84236108 17 36 C16.92439391 38.19541189 16.91692948 40.39322669 16.9375 42.58984375 C16.94128662 43.2495668 16.94507324 43.90928986 16.94897461 44.58900452 C16.96538219 47.42163518 16.99347909 50.25412389 17.02050781 53.08666992 C17.03854875 55.15022114 17.05067271 57.2137491 17.0625 59.27734375 C17.07410156 60.51734131 17.08570313 61.75733887 17.09765625 63.03491211 C17 66 17 66 16 68 C18.475 67.505 18.475 67.505 21 67 C19.625 68.5 19.625 68.5 18 70 C17.34 70 16.68 70 16 70 C16.41185962 82.95298501 18.45741535 92.35203442 27.60546875 101.89453125 C30.87604554 104.77029127 33.968216 106.3872864 38 108 C42.04967614 105.22813429 45.41020591 102.90203802 48.125 98.75 C50.40830034 95.4011595 52.12225561 94.88130554 56 94 C56 93.34 56 92.68 56 92 C57.81720396 90.45037785 59.70605872 88.98419737 61.625 87.5625 C62.66914063 86.78003906 63.71328125 85.99757813 64.7890625 85.19140625 C67.77926072 83.15065053 70.72700748 81.53333604 74 80 C74.66 79.67 75.32 79.34 76 79 C78.4750171 80.11431765 80.67883419 81.58150978 83 83 C79.58806906 85.66750964 76.02906448 87.68310254 72.21875 89.71875 C69.97708969 90.94571059 69.97708969 90.94571059 68.03125 92.53125 C66 94 66 94 63.5859375 94.94921875 C60.54242898 96.18593142 58.25198437 97.84414351 55.625 99.8125 C54.66980469 100.52019531 53.71460938 101.22789062 52.73046875 101.95703125 C51.82941406 102.63121094 50.92835938 103.30539063 50 104 C43.28162291 109 43.28162291 109 41 109 C41 109.66 41 110.32 41 111 C52.82748937 113.557295 61.91053079 111.70412832 72.32421875 105.6484375 C79.40672725 100.81884123 83.47000214 93.64832869 87 86 C88.485 86.99 88.485 86.99 90 88 C87.45520612 103.947375 81.46910132 117.93848133 68.3671875 128.02734375 C58.21912246 134.86500011 48.6956439 137.67956776 36.5 137.5 C34.92412109 137.52320313 34.92412109 137.52320313 33.31640625 137.546875 C17.25637575 137.46746817 4.12606127 129.12606127 -7 118 C-7.75505161 116.52296473 -8.45907246 115.01930136 -9.125 113.5 C-9.47820312 112.7059375 -9.83140625 111.911875 -10.1953125 111.09375 C-11 109 -11 109 -11 107 C-11.66 106.67 -12.32 106.34 -13 106 C-16.12623723 99.49599462 -16.34412792 94.066973 -16.07421875 86.9375 C-16.04777786 85.90560547 -16.02133698 84.87371094 -15.99409485 83.81054688 C-15.90686693 80.53974014 -15.79753098 77.27011102 -15.6875 74 C-15.62418564 71.77217658 -15.56232154 69.54431144 -15.50195312 67.31640625 C-15.35141277 61.87700904 -15.18275397 56.43840512 -15 51 C-15.66 50.67 -16.32 50.34 -17 50 C-16.67 42.74 -16.34 35.48 -16 28 C-18.475 27.01 -18.475 27.01 -21 26 C-22.38356495 25.35129555 -23.75930452 24.68552557 -25.125 24 C-25.78757812 23.67 -26.45015625 23.34 -27.1328125 23 C-29 22 -29 22 -32 20 C-32.6875 17.375 -32.6875 17.375 -33 15 C-30.04476573 12.92881017 -27.03221822 10.95663893 -24 9 C-23.34596191 8.57702637 -22.69192383 8.15405273 -22.01806641 7.71826172 C-19.81713863 6.31032628 -17.59869309 4.93415079 -15.375 3.5625 C-14.65900635 3.10117676 -13.9430127 2.63985352 -13.20532227 2.16455078 C-8.43552468 -0.72886635 -5.58740396 -1.67622119 0 0 Z " fill="#428880" transform="translate(91,141)"/>
<path d="M0 0 C10.91701702 8.23626324 19.06827361 18.87075894 21.625 32.625 C21.8146879 35.02627643 21.78226607 37.21358687 21.625 39.625 C23.275 39.295 24.925 38.965 26.625 38.625 C25.635 39.615 25.635 39.615 24.625 40.625 C27.925 40.955 31.225 41.285 34.625 41.625 C34.625 41.955 34.625 42.285 34.625 42.625 C30.335 42.955 26.045 43.285 21.625 43.625 C21.625 62.765 21.625 81.905 21.625 101.625 C29.5465518 106.52014473 29.5465518 106.52014473 34.5 107.625 C38.35643927 108.85906057 38.7743751 110.16754509 40.625 113.625 C39.9136792 114.03862793 39.2023584 114.45225586 38.46948242 114.87841797 C35.2499194 116.75130271 32.03120088 118.62563402 28.8125 120.5 C27.69294922 121.15097656 26.57339844 121.80195313 25.41992188 122.47265625 C24.34677734 123.09785156 23.27363281 123.72304687 22.16796875 124.3671875 C21.17821045 124.9432373 20.18845215 125.51928711 19.16870117 126.11279297 C17.2883411 127.2306498 15.44514836 128.41156776 13.625 129.625 C9.17975677 130.02013273 5.71332533 129.40253275 1.625 127.625 C0.2506709 126.33396357 -1.08396357 124.9993291 -2.375 123.625 C-3.220625 123.150625 -4.06625 122.67625 -4.9375 122.1875 C-8.03381331 120.20268378 -8.87679666 119.01748343 -10.375 115.625 C-10.73701661 112.01263115 -10.65746492 108.43821179 -10.5625 104.8125 C-10.54896484 103.83345703 -10.53542969 102.85441406 -10.52148438 101.84570312 C-10.48625312 99.43823375 -10.43699265 97.03190436 -10.375 94.625 C-9.715 94.625 -9.055 94.625 -8.375 94.625 C-8.44138672 93.97378174 -8.50777344 93.32256348 -8.57617188 92.65161133 C-9.26639469 85.53967133 -9.63163305 78.45218162 -9.875 71.3125 C-10.03753488 67.08316802 -10.20578034 62.8540694 -10.375 58.625 C-10.40561523 57.83931641 -10.43623047 57.05363281 -10.46777344 56.24414062 C-10.92435584 43.81359631 -10.92435584 43.81359631 -17.375 33.625 C-17.87 32.325625 -17.87 32.325625 -18.375 31 C-18.87 29.824375 -18.87 29.824375 -19.375 28.625 C-20.86 28.13 -20.86 28.13 -22.375 27.625 C-24.5625 25.6875 -24.5625 25.6875 -26.375 23.625 C-26.375 22.965 -26.375 22.305 -26.375 21.625 C-36.87338818 17.07569845 -46.81646462 14.56883862 -58 18.1875 C-69.79559941 23.02672027 -75.92820781 31.38934654 -81.375 42.625 C-83.685 41.965 -85.995 41.305 -88.375 40.625 C-88.375 39.965 -88.375 39.305 -88.375 38.625 C-87.055 38.955 -85.735 39.285 -84.375 39.625 C-84.14425781 38.65820312 -83.91351563 37.69140625 -83.67578125 36.6953125 C-79.56684723 20.04297814 -72.667858 6.89660788 -57.69140625 -2.45703125 C-39.83514908 -12.78379482 -16.97442566 -11.18998596 0 0 Z " fill="#2F7D8F" transform="translate(159.375,8.375)"/>
<path d="M0 0 C0 0.66 0 1.32 0 2 C-1.5390625 3.26171875 -1.5390625 3.26171875 -3.625 4.6875 C-10.4698012 9.69412137 -15.79086912 15.64925395 -18 24 C-18.70528326 29.30742131 -18.86877738 34.65267841 -19 40 C-23.33528736 40 -24.65324693 39.33632241 -28.31640625 37.2265625 C-29.32767578 36.6490625 -30.33894531 36.0715625 -31.38085938 35.4765625 C-32.43080078 34.86554687 -33.48074219 34.25453125 -34.5625 33.625 C-35.61630859 33.02171875 -36.67011719 32.4184375 -37.75585938 31.796875 C-41.56572643 29.60869354 -45.34358698 27.43760868 -49 25 C-49.86717174 19.58478921 -47.08580991 16.11906818 -44.1796875 11.7890625 C-32.81371768 -2.75449028 -16.86448594 -6.14584303 0 0 Z " fill="#091821" transform="translate(128,27)"/>
<path d="M0 0 C10.97928265 0.08436331 19.63807621 4.07753435 27.6875 11.4375 C33.6901188 17.65307202 36.64950936 24.75366846 37.125 33.3125 C35.85269531 32.77109375 35.85269531 32.77109375 34.5546875 32.21875 C23.73919594 27.940094 13.35266659 26.14808617 2.08984375 30.36328125 C1.44144531 30.67652344 0.79304687 30.98976563 0.125 31.3125 C-0.72594238 31.71275391 -1.57688477 32.11300781 -2.45361328 32.52539062 C-5.1015147 34.08704838 -5.1015147 34.08704838 -5.53442383 36.85620117 C-5.55013428 37.84595947 -5.56584473 38.83571777 -5.58203125 39.85546875 C-5.61103516 40.92861328 -5.64003906 42.00175781 -5.66992188 43.10742188 C-5.67572266 44.22697266 -5.68152344 45.34652344 -5.6875 46.5 C-5.71263672 47.63115234 -5.73777344 48.76230469 -5.76367188 49.92773438 C-5.82264384 52.7230053 -5.85885033 55.51670675 -5.875 58.3125 C-5.09165283 58.6204248 -4.30830566 58.92834961 -3.5012207 59.24560547 C-0.07526381 60.63739051 2.9395194 62.43868788 6.125 64.3125 C3.125 65.3125 3.125 65.3125 0.68009949 64.56306458 C-2.28775159 63.05589077 -4.5135419 61.67165414 -6.875 59.3125 C-8.28470645 54.89658766 -8.06728161 50.67276674 -7.88671875 46.07421875 C-7.87494095 44.7977095 -7.86316315 43.52120026 -7.85102844 42.20600891 C-7.8100997 38.82519154 -7.72543766 35.45121919 -7.61993408 32.07220459 C-7.52434932 28.62353469 -7.49177553 25.1742801 -7.45117188 21.72460938 C-7.37630345 16.70053561 -7.28887245 11.67770238 -7.1472168 6.6550293 C-7.11927536 5.64498337 -7.09133392 4.63493744 -7.06254578 3.59428406 C-6.69581338 -0.86758198 -3.91988601 0.08762098 0 0 Z " fill="#273338" transform="translate(186.875,50.6875)"/>
<path d="M0 0 C0.08636719 0.97839844 0.17273438 1.95679687 0.26171875 2.96484375 C1.110361 10.88290954 2.19206138 17.43889039 7 24 C7.59554687 24.82628906 8.19109375 25.65257813 8.8046875 26.50390625 C11.22701667 29.25812038 13.62184278 30.91326169 16.75 32.8125 C17.73484375 33.41707031 18.7196875 34.02164063 19.734375 34.64453125 C20.85585937 35.31548828 20.85585937 35.31548828 22 36 C19.91185324 41.67583514 14.40364207 43.61282284 9.38769531 46.39306641 C7.62677035 47.3740138 5.88400361 48.38280167 4.140625 49.39453125 C3.03460938 50.01457031 1.92859375 50.63460937 0.7890625 51.2734375 C-0.22462402 51.84497559 -1.23831055 52.41651367 -2.28271484 53.00537109 C-5 54 -5 54 -7.2734375 53.25854492 C-12.20022141 49.66725942 -14.67875884 44.54920931 -15.71484375 38.64453125 C-17.05548083 26.21149967 -16.08526155 16.11291155 -8.4375 5.9375 C-3.61663653 0 -3.61663653 0 0 0 Z " fill="#283337" transform="translate(32,84)"/>
<path d="M0 0 C0.0246519 4.82380802 0.04283693 9.64757967 0.05493164 14.47143555 C0.05997174 16.11369464 0.06680378 17.75594923 0.07543945 19.39819336 C0.08751926 21.75375479 0.09323139 24.10925709 0.09765625 26.46484375 C0.10281754 27.20339096 0.10797882 27.94193817 0.11329651 28.7028656 C0.1134925 30.46898088 0.06194719 32.23497146 0 34 C-1.87196817 35.87196817 -4.80261997 35.303681 -7.3125 35.375 C-18.58523423 35.2491116 -26.81017947 31.25887775 -34.8671875 23.4609375 C-40.17139847 17.34069408 -42.55462464 11.01675656 -43 3 C-37 5 -37 5 -34.1875 6.0625 C-25.37507321 8.65439023 -16.45462812 8.78267226 -8.11328125 4.52734375 C-6.35426821 3.46591363 -4.61364703 2.37303543 -2.8984375 1.2421875 C-1 0 -1 0 0 0 Z " fill="#091821" transform="translate(76,192)"/>
<path d="M0 0 C1 3 1 3 0.1015625 5.41796875 C-5.09073505 15.15696072 -11.72513082 21.81067566 -22 26 C-22.928125 26.4125 -23.85625 26.825 -24.8125 27.25 C-31.58621807 28.84381602 -38.55584159 28.7866631 -45 26 C-45 25.34 -45 24.68 -45 24 C-43.28759766 22.61132812 -43.28759766 22.61132812 -40.9140625 21.03125 C-40.06585938 20.46019531 -39.21765625 19.88914063 -38.34375 19.30078125 C-37.4465625 18.70652344 -36.549375 18.11226562 -35.625 17.5 C-33.86595746 16.32475564 -32.10808884 15.14775177 -30.3515625 13.96875 C-29.56604004 13.44732422 -28.78051758 12.92589844 -27.97119141 12.38867188 C-25.89878942 11.01267442 -25.89878942 11.01267442 -24 9 C-22.31325406 8.30545755 -20.62627886 7.6114597 -18.9375 6.921875 C-15.67331426 5.36875436 -12.90093024 3.13560945 -10 1 C-6.40882713 -1.39411525 -4.15809089 -0.94502066 0 0 Z " fill="#293539" transform="translate(177,226)"/>
<path d="M0 0 C2 1 2 1 3.125 4 C5.73480896 14.1285443 3.21139288 23.51760806 -1.5 32.58984375 C-3.78078917 36.25454927 -6.55830898 39.38188743 -10 42 C-10.66 42 -11.32 42 -12 42 C-14 30 -14 30 -14.44140625 26.6640625 C-14.71791016 25.34535156 -14.71791016 25.34535156 -15 24 C-15.66 23.67 -16.32 23.34 -17 23 C-19.0095568 20.06295544 -20 18.60777515 -20 15 C-17.82561685 13.24262184 -15.68964184 11.67585661 -13.375 10.125 C-8.71372344 6.94287592 -4.28516382 3.67864832 0 0 Z " fill="#0B212F" transform="translate(237,152)"/>
<path d="M0 0 C4.72660756 4.72660756 5.8662114 6.27246219 8 12 C-10.68774704 28 -10.68774704 28 -15 28 C-15.66 27.01 -16.32 26.02 -17 25 C-17.99 24.67 -18.98 24.34 -20 24 C-21 23 -22 22 -23 21 C-23.886875 20.484375 -24.77375 19.96875 -25.6875 19.4375 C-26.450625 18.963125 -27.21375 18.48875 -28 18 C-28 17.34 -28 16.68 -28 16 C-18.76 10.72 -9.52 5.44 0 0 Z " fill="#2E7B92" transform="translate(230,140)"/>
<path d="M0 0 C2.64 1.32 5.28 2.64 8 4 C4.58806906 6.66750964 1.02906448 8.68310254 -2.78125 10.71875 C-5.02291031 11.94571059 -5.02291031 11.94571059 -6.96875 13.53125 C-9 15 -9 15 -11.4140625 15.94921875 C-14.45757102 17.18593142 -16.74801563 18.84414351 -19.375 20.8125 C-20.33019531 21.52019531 -21.28539062 22.22789062 -22.26953125 22.95703125 C-23.17058594 23.63121094 -24.07164062 24.30539063 -25 25 C-31.71837709 30 -31.71837709 30 -34 30 C-34 30.66 -34 31.32 -34 32 C-34.99 31.67 -35.98 31.34 -37 31 C-37 30.34 -37 29.68 -37 29 C-35.390625 27.703125 -35.390625 27.703125 -33.25 26.25 C-30.31742064 24.15089056 -28.89758854 22.8433707 -26.875 19.75 C-24.59169966 16.4011595 -22.87774439 15.88130554 -19 15 C-19 14.34 -19 13.68 -19 13 C-17.18279604 11.45037785 -15.29394128 9.98419737 -13.375 8.5625 C-12.33085937 7.78003906 -11.28671875 6.99757812 -10.2109375 6.19140625 C-7.22508615 4.15361719 -4.25334851 2.55988998 -1 1 C-0.67 0.67 -0.34 0.34 0 0 Z " fill="#356E68" transform="translate(166,220)"/>
<path d="M0 0 C2 1 2 1 3.125 4 C4.27521462 8.32229088 4.18124209 12.55956873 4 17 C3.67 17 3.34 17 3 17 C2.67 15.02 2.34 13.04 2 11 C-0.32241025 12.570249 -2.63224489 14.1549158 -4.9375 15.75 C-5.59685547 16.1934375 -6.25621094 16.636875 -6.93554688 17.09375 C-7.87817383 17.75117188 -7.87817383 17.75117188 -8.83984375 18.421875 C-9.71177368 19.01887207 -9.71177368 19.01887207 -10.60131836 19.62792969 C-13.01307855 21.99380371 -12.98836911 24.48824085 -13.0625 27.75 C-13.041875 28.4925 -13.02125 29.235 -13 30 C-15 26.25 -15 26.25 -15 24 C-15.66 23.67 -16.32 23.34 -17 23 C-19.0095568 20.06295544 -20 18.60777515 -20 15 C-17.82561685 13.24262184 -15.68964184 11.67585661 -13.375 10.125 C-8.71372344 6.94287592 -4.28516382 3.67864832 0 0 Z " fill="#153A4B" transform="translate(237,152)"/>
<path d="M0 0 C-1.010625 0.556875 -2.02125 1.11375 -3.0625 1.6875 C-7.91646726 4.47240243 -12.42862291 7.3814029 -16.33984375 11.41015625 C-19.04697768 14.04573598 -21.75786538 15.97027185 -24.9375 18 C-28.3215465 20.18285496 -31.45903552 22.28575929 -34.375 25.0625 C-37 27 -37 27 -40.375 26.8125 C-41.24125 26.544375 -42.1075 26.27625 -43 26 C-43 25.34 -43 24.68 -43 24 C-41.28759766 22.61132812 -41.28759766 22.61132812 -38.9140625 21.03125 C-38.06585938 20.46019531 -37.21765625 19.88914063 -36.34375 19.30078125 C-35.4465625 18.70652344 -34.549375 18.11226562 -33.625 17.5 C-31.86595746 16.32475564 -30.10808884 15.14775177 -28.3515625 13.96875 C-27.56604004 13.44732422 -26.78051758 12.92589844 -25.97119141 12.38867188 C-23.89878942 11.01267442 -23.89878942 11.01267442 -22 9 C-20.31325406 8.30545755 -18.62627886 7.6114597 -16.9375 6.921875 C-14.23668118 5.63680798 -11.96083715 3.91651696 -9.5625 2.14453125 C-6.07567579 -0.40956748 -4.2010459 -1.50037354 0 0 Z " fill="#2A4443" transform="translate(175,226)"/>
<path d="M0 0 C0.66 0.33 1.32 0.66 2 1 C2.625 3.5625 2.625 3.5625 3 6 C2.53102295 6.29245605 2.0620459 6.58491211 1.57885742 6.88623047 C-0.55189165 8.2153455 -2.68220003 9.54516528 -4.8125 10.875 C-5.55048828 11.33519531 -6.28847656 11.79539063 -7.04882812 12.26953125 C-7.76103516 12.71425781 -8.47324219 13.15898437 -9.20703125 13.6171875 C-10.18893433 14.22989502 -10.18893433 14.22989502 -11.19067383 14.85498047 C-12.8092467 15.8792831 -14.40624377 16.93749584 -16 18 C-18.6875 18.125 -18.6875 18.125 -21 18 C-19.48558053 13.86976508 -16.96788323 12.40904122 -13.3125 10.125 C-8.5076731 7.0374217 -4.22144925 3.83768114 0 0 Z " fill="#1E5367" transform="translate(237,152)"/>
<path d="M0 0 C-3.41193094 2.66750964 -6.97093552 4.68310254 -10.78125 6.71875 C-13.02291031 7.94571059 -13.02291031 7.94571059 -14.96875 9.53125 C-17 11 -17 11 -19.38671875 11.9296875 C-22.58834525 13.24096652 -25.04402414 15.05698189 -27.8125 17.125 C-28.78832031 17.84945312 -29.76414063 18.57390625 -30.76953125 19.3203125 C-31.50558594 19.87460938 -32.24164063 20.42890625 -33 21 C-33.66 20.67 -34.32 20.34 -35 20 C-29.17254079 14.73887134 -22.92422908 10.38017069 -16.375 6.0625 C-15.35148437 5.36576172 -14.32796875 4.66902344 -13.2734375 3.95117188 C-12.2834375 3.29826172 -11.2934375 2.64535156 -10.2734375 1.97265625 C-9.38060059 1.37718994 -8.48776367 0.78172363 -7.56787109 0.16821289 C-4.53659411 -1.21081928 -3.12441975 -0.98723229 0 0 Z M-38 20 C-37.01 20.66 -36.02 21.32 -35 22 C-39.75 26 -39.75 26 -42 26 C-42 26.66 -42 27.32 -42 28 C-42.99 27.67 -43.98 27.34 -45 27 C-45 26.34 -45 25.68 -45 25 C-43.46875 23.7109375 -43.46875 23.7109375 -41.5 22.375 C-40.8503125 21.92898437 -40.200625 21.48296875 -39.53125 21.0234375 C-39.0259375 20.68570313 -38.520625 20.34796875 -38 20 Z " fill="#2F615C" transform="translate(174,224)"/>
<path d="M0 0 C0 1.32 0 2.64 0 4 C-1.5390625 5.52734375 -1.5390625 5.52734375 -3.625 6.9375 C-7.25012372 9.47250645 -10.63018152 12.13565429 -14 15 C-12.98237885 5.16299559 -12.98237885 5.16299559 -11 1 C-7.17446019 -1.44409488 -4.30952064 -1.0022141 0 0 Z " fill="#45938E" transform="translate(160,216)"/>
<path d="M0 0 C3.31044801 1.26250829 6.34501107 2.71706855 9.4375 4.4375 C23.38091617 11.40920809 37.24639207 10.4302971 52 7 C52 6.01 52 5.02 52 4 C52.99 4 53.98 4 55 4 C55 4.99 55 5.98 55 7 C41.25982947 13.58775299 27.48982173 14.00287963 13 9 C3.00350877 4.50526316 3.00350877 4.50526316 0 0 Z " fill="#3CA8B1" transform="translate(21,223)"/>
<path d="M0 0 C0.66 0.66 1.32 1.32 2 2 C-16.68774704 18 -16.68774704 18 -21 18 C-20.69685966 14.8487504 -20.44147666 13.39879414 -18.05053711 11.23901367 C-17.2178833 10.72056885 -16.38522949 10.20212402 -15.52734375 9.66796875 C-14.62822266 9.09755859 -13.72910156 8.52714844 -12.80273438 7.93945312 C-11.85720703 7.36130859 -10.91167969 6.78316406 -9.9375 6.1875 C-8.5134082 5.2912793 -8.5134082 5.2912793 -7.06054688 4.37695312 C-4.7153585 2.90384485 -2.36210051 1.44577661 0 0 Z " fill="#26677D" transform="translate(236,150)"/>
<path d="M0 0 C0.99 0.680625 0.99 0.680625 2 1.375 C-1.2388709 4.9640191 -5.31893765 7.15112308 -9.40625 9.65625 C-11.97100151 11.23207887 -11.97100151 11.23207887 -13.71875 13.09375 C-14.1415625 13.5165625 -14.564375 13.939375 -15 14.375 C-15.66 14.375 -16.32 14.375 -17 14.375 C-17 15.035 -17 15.695 -17 16.375 C-18.32 16.705 -19.64 17.035 -21 17.375 C-19.61748395 11.6721213 -15.35829132 8.88307983 -11 5.375 C-10.29746094 4.76398438 -9.59492188 4.15296875 -8.87109375 3.5234375 C-3.70339241 -0.77154009 -3.70339241 -0.77154009 0 0 Z " fill="#428982" transform="translate(164,218.625)"/>
<path d="M0 0 C0 0.66 0 1.32 0 2 C-1.00289062 2.24621094 -2.00578125 2.49242187 -3.0390625 2.74609375 C-7.19237707 3.93350232 -10.68096033 5.86104139 -14.375 8.0625 C-15.31666016 8.60874023 -15.31666016 8.60874023 -16.27734375 9.16601562 C-19.31465566 10.84236108 -19.31465566 10.84236108 -22 13 C-22.07560609 15.19541189 -22.08307052 17.39322669 -22.0625 19.58984375 C-22.05871338 20.2495668 -22.05492676 20.90928986 -22.05102539 21.58900452 C-22.03461781 24.42163518 -22.00652091 27.25412389 -21.97949219 30.08666992 C-21.96145125 32.15022114 -21.94932729 34.2137491 -21.9375 36.27734375 C-21.92589844 37.51734131 -21.91429688 38.75733887 -21.90234375 40.03491211 C-22 43 -22 43 -23 45 C-20.525 44.505 -20.525 44.505 -18 44 C-19.3125 45.5 -19.3125 45.5 -21 47 C-21.99 47 -22.98 47 -24 47 C-26.70476975 15.45822355 -26.70476975 15.45822355 -22.37988281 8.32958984 C-17.97950004 4.24530854 -12.75358495 2.39277098 -7 1 C-4 0 -4 0 0 0 Z " fill="#1B3B45" transform="translate(130,164)"/>
<path d="M0 0 C2.91517292 1.07401108 4.77810176 1.77810176 7 4 C6.34 4 5.68 4 5 4 C5.06807861 4.59425781 5.13615723 5.18851562 5.20629883 5.80078125 C6.85564182 22.32311887 6.85564182 22.32311887 3.78857422 26.74755859 C0.33427206 29.78852545 -3.7113731 31.39953416 -8 33 C-9.341029 33.65104795 -10.67864905 34.30988849 -12 35 C-10.64625203 30.93875609 -8.73741172 30.39684351 -5.0625 28.3125 C-3.98097656 27.68988281 -2.89945313 27.06726563 -1.78515625 26.42578125 C1 25 1 25 3 25 C2.89020915 21.39520054 2.75955955 17.79145321 2.625 14.1875 C2.5940625 13.16333984 2.563125 12.13917969 2.53125 11.08398438 C2.49257812 10.10107422 2.45390625 9.11816406 2.4140625 8.10546875 C2.3826416 7.19949951 2.3512207 6.29353027 2.31884766 5.36010742 C2.13972081 2.73474608 2.13972081 2.73474608 0 0 Z " fill="#19323B" transform="translate(73,84)"/>
<path d="M0 0 C2.125 0.375 2.125 0.375 4 1 C3.47043701 1.33733154 2.94087402 1.67466309 2.39526367 2.0222168 C-0.01464363 3.56621638 -2.41350811 5.12659986 -4.8125 6.6875 C-5.64587891 7.21794922 -6.47925781 7.74839844 -7.33789062 8.29492188 C-13.23390763 12.13468943 -13.23390763 12.13468943 -17 18 C-18.32 17.67 -19.64 17.34 -21 17 C-21 16.34 -21 15.68 -21 15 C-19.28759766 13.61132812 -19.28759766 13.61132812 -16.9140625 12.03125 C-16.06585938 11.46019531 -15.21765625 10.88914063 -14.34375 10.30078125 C-13.4465625 9.70652344 -12.549375 9.11226562 -11.625 8.5 C-9.86595746 7.32475564 -8.10808884 6.14775177 -6.3515625 4.96875 C-5.56604004 4.44732422 -4.78051758 3.92589844 -3.97119141 3.38867188 C-1.89878942 2.01267442 -1.89878942 2.01267442 0 0 Z " fill="#2C5450" transform="translate(153,235)"/>
<path d="M0 0 C-1.23639519 3.70918556 -2.86462482 4.26232251 -6.2109375 6.03515625 C-8.24703385 7.0973242 -8.24703385 7.0973242 -11 9 C-10.67 6.36 -10.34 3.72 -10 1 C-6.21812119 -0.83691257 -4.05431692 -1.15837626 0 0 Z " fill="#54B0A6" transform="translate(159,216)"/>
<path d="M0 0 C0.99 0.66 1.98 1.32 3 2 C-3.49090909 5.81818182 -3.49090909 5.81818182 -6.625 6.9375 C-9.23125444 7.93400313 -9.23125444 7.93400313 -11.5 10.5 C-13.9810277 12.9810277 -15.69871953 13.96245471 -19 15 C-19 14.34 -19 13.68 -19 13 C-17.18279604 11.45037785 -15.29394128 9.98419737 -13.375 8.5625 C-12.33085937 7.78003906 -11.28671875 6.99757812 -10.2109375 6.19140625 C-7.22508615 4.15361719 -4.25334851 2.55988998 -1 1 C-0.67 0.67 -0.34 0.34 0 0 Z " fill="#3B7B75" transform="translate(166,220)"/>
<path d="M0 0 C-0.969375 0.53625 -1.93875 1.0725 -2.9375 1.625 C-7.44190521 4.19103412 -11.71582398 7.08559454 -16 10 C-16.66 9.34 -17.32 8.68 -18 8 C-16.41906946 6.87162591 -14.83515284 5.74743482 -13.25 4.625 C-12.36828125 3.99851563 -11.4865625 3.37203125 -10.578125 2.7265625 C-4.24367622 -1.51559865 -4.24367622 -1.51559865 0 0 Z " fill="#2B4E4B" transform="translate(175,226)"/>
<path d="M0 0 C0 0.66 0 1.32 0 2 C-0.54527344 2.27972656 -1.09054688 2.55945313 -1.65234375 2.84765625 C-6.94170288 5.65960614 -11.43687783 8.80660765 -15.95703125 12.7421875 C-18 14 -18 14 -20.26171875 13.6953125 C-20.83535156 13.46585938 -21.40898437 13.23640625 -22 13 C-18.15835942 10.43890628 -14.30167126 7.90194353 -10.4375 5.375 C-9.26670898 4.6015625 -9.26670898 4.6015625 -8.07226562 3.8125 C-7.32525391 3.32523438 -6.57824219 2.83796875 -5.80859375 2.3359375 C-5.12595459 1.88782715 -4.44331543 1.4397168 -3.73999023 0.97802734 C-2 0 -2 0 0 0 Z " fill="#174254" transform="translate(240,158)"/>
<path d="M0 0 C3.68754757 0.49831724 5.60490662 1.10067643 8 4 C5 6 5 6 1 6 C1 6.99 1 7.98 1 9 C0.34 8.67 -0.32 8.34 -1 8 C-0.67 5.36 -0.34 2.72 0 0 Z " fill="#46938C" transform="translate(148,211)"/>
<path d="M0 0 C5.84892465 0.86093984 11.48931045 4.33854521 16 8 C17.1025583 11.16434232 16.70763932 12.63871324 16 16 C15.67 16 15.34 16 15 16 C15 13.69 15 11.38 15 9 C14.34 8.7525 13.68 8.505 13 8.25 C8.10470201 6.21029251 3.41547285 3.94364857 -1 1 C-0.67 0.67 -0.34 0.34 0 0 Z " fill="#2B5B5E" transform="translate(60,160)"/>
<path d="M0 0 C0.66 0.33 1.32 0.66 2 1 C-3.85261403 6.51722067 -10.12561037 10.84251068 -17 15 C-17.33 14.34 -17.66 13.68 -18 13 C-17.20335937 12.48050781 -16.40671875 11.96101562 -15.5859375 11.42578125 C-10.15200638 7.84943486 -4.86540221 4.32480197 0 0 Z " fill="#1D5368" transform="translate(237,154)"/>
<path d="M0 0 C5.94 0 11.88 0 18 0 C18 0.66 18 1.32 18 2 C14.39006828 3.13480527 11.0157673 3.10015767 7.25 3.0625 C6.07953125 3.05347656 4.9090625 3.04445312 3.703125 3.03515625 C2.81109375 3.02355469 1.9190625 3.01195312 1 3 C0.67 2.01 0.34 1.02 0 0 Z " fill="#3C939A" transform="translate(194,233)"/>
<path d="M0 0 C0 3 0 3 -2.1875 5.48046875 C-3.115625 6.37378906 -4.04375 7.26710937 -5 8.1875 C-5.928125 9.08855469 -6.85625 9.98960937 -7.8125 10.91796875 C-8.534375 11.60503906 -9.25625 12.29210937 -10 13 C-10.33 12.34 -10.66 11.68 -11 11 C-10.67 10.34 -10.34 9.68 -10 9 C-9.34 9 -8.68 9 -8 9 C-7.79375 8.443125 -7.5875 7.88625 -7.375 7.3125 C-5.44999226 4.07498698 -2.96149098 2.31768859 0 0 Z " fill="#409FA9" transform="translate(21,140)"/>
<path d="M0 0 C0.66 0.33 1.32 0.66 2 1 C-1.96 4.96 -5.92 8.92 -10 13 C-10 8.41771462 -7.08388033 6.1816619 -4 3 C-1.625 1.0625 -1.625 1.0625 0 0 Z " fill="#3BA7B0" transform="translate(97,9)"/>
<path d="M0 0 C0.33 0.66 0.66 1.32 1 2 C1.66 2.33 2.32 2.66 3 3 C2.34 4.32 1.68 5.64 1 7 C-1.31 6.34 -3.62 5.68 -6 5 C-6 4.34 -6 3.68 -6 3 C-4.68 3.33 -3.36 3.66 -2 4 C-1.34 2.68 -0.68 1.36 0 0 Z " fill="#47AEB8" transform="translate(77,44)"/>
<path d="M0 0 C0.33 0.66 0.66 1.32 1 2 C-0.7699868 2.19532961 -2.54104279 2.38098882 -4.3125 2.5625 C-5.29863281 2.66691406 -6.28476562 2.77132812 -7.30078125 2.87890625 C-10 3 -10 3 -13 2 C-8.50343896 -0.24828052 -4.92127034 -0.16682272 0 0 Z " fill="#44A0A2" transform="translate(55,76)"/>
<path d="M0 0 C-0.99 0.495 -0.99 0.495 -2 1 C1.3 1.33 4.6 1.66 8 2 C8 2.33 8 2.66 8 3 C3.38 3 -1.24 3 -6 3 C-6 2.01 -6 1.02 -6 0 C-3 -1 -3 -1 0 0 Z " fill="#3F8480" transform="translate(186,48)"/>
<path d="M0 0 C0.33 0.99 0.66 1.98 1 3 C-4.2734375 6.22265625 -4.2734375 6.22265625 -6 7 C-6.66 6.67 -7.32 6.34 -8 6 C-5.51047079 3.33264727 -3.36591866 1.44253657 0 0 Z " fill="#275D68" transform="translate(60,117)"/>
<path d="M0 0 C0.66 0.33 1.32 0.66 2 1 C1 4 1 4 -2 6 C-4.1875 5.625 -4.1875 5.625 -6 5 C-5.195625 4.54625 -4.39125 4.0925 -3.5625 3.625 C-0.91143428 2.25274335 -0.91143428 2.25274335 0 0 Z " fill="#4B9C92" transform="translate(159,216)"/>
<path d="" fill="#27565D" transform="translate(0,0)"/>
</svg>
