<?xml version="1.0" encoding="UTF-8"?>
<svg version="1.1" xmlns="http://www.w3.org/2000/svg" width="32" height="34">
<path d="M0 0 C10.56 0 21.12 0 32 0 C32 11.22 32 22.44 32 34 C21.44 34 10.88 34 0 34 C0 22.78 0 11.56 0 0 Z " fill="#378797" transform="translate(0,0)"/>
<path d="M0 0 C7.59 0 15.18 0 23 0 C23.33 0.99 23.66 1.98 24 3 C22.35 3 20.7 3 19 3 C18.34 4.32 17.68 5.64 17 7 C16.67 5.68 16.34 4.36 16 3 C14.02 3.33 12.04 3.66 10 4 C10.33 5.98 10.66 7.96 11 10 C6.56923077 12.09230769 6.56923077 12.09230769 3.6875 11.625 C3.130625 11.41875 2.57375 11.2125 2 11 C2 12.98 2 14.96 2 17 C3.65 17.33 5.3 17.66 7 18 C8 21 8 21 6.5625 24.1875 C6.046875 25.115625 5.53125 26.04375 5 27 C6.65 27.33 8.3 27.66 10 28 C10.33 25.69 10.66 23.38 11 21 C11.99 21 12.98 21 14 21 C13.67 22.65 13.34 24.3 13 26 C13.99 26.33 14.98 26.66 16 27 C15.67 28.32 15.34 29.64 15 31 C14.34 31 13.68 31 13 31 C12.505 32.485 12.505 32.485 12 34 C8.04 34 4.08 34 0 34 C0 22.78 0 11.56 0 0 Z " fill="#4A978E" transform="translate(0,0)"/>
<path d="M0 0 C4.875 0.875 4.875 0.875 6 2 C6.28011184 5.9720707 6.23179176 9.95672416 6.25 13.9375 C6.270625 15.06091797 6.29125 16.18433594 6.3125 17.34179688 C6.31765625 18.41365234 6.3228125 19.48550781 6.328125 20.58984375 C6.34214355 22.07278931 6.34214355 22.07278931 6.35644531 23.58569336 C6.23881836 24.38241455 6.12119141 25.17913574 6 26 C2.77208445 28.1519437 1.71599191 28.20086443 -2 28 C-2.33 27.01 -2.66 26.02 -3 25 C-4.98 25 -6.96 25 -9 25 C-9 21.7 -9 18.4 -9 15 C-7.88625 14.5875 -6.7725 14.175 -5.625 13.75 C-3.00679305 12.64453484 -2.16506911 12.25119213 -0.5625 9.8125 C-0.376875 9.214375 -0.19125 8.61625 0 8 C0.66 8 1.32 8 2 8 C1.67 7.4225 1.34 6.845 1 6.25 C0 4 0 4 0 0 Z " fill="#2C5955" transform="translate(26,3)"/>
<path d="M0 0 C1.98 0 3.96 0 6 0 C6 0.99 6 1.98 6 3 C6.53625 3.268125 7.0725 3.53625 7.625 3.8125 C10.41666667 5.20833333 13.20833333 6.60416667 16 8 C15.67 10.97 15.34 13.94 15 17 C16.98 17 18.96 17 21 17 C21.33 17.66 21.66 18.32 22 19 C25.96 18.505 25.96 18.505 30 18 C30 19.65 30 21.3 30 23 C23.4 23 16.8 23 10 23 C10.33 22.01 10.66 21.02 11 20 C11.66 19.67 12.32 19.34 13 19 C13 18.01 13 17.02 13 16 C12.34 15.67 11.68 15.34 11 15 C11 13.35 11 11.7 11 10 C8.64046906 12.35953094 8.50858587 13.77895617 8 17 C6.35 16.67 4.7 16.34 3 16 C3.57584432 13.61435923 4.22227595 11.33317216 5 9 C4.67 8.34 4.34 7.68 4 7 C1.97536745 6.34786708 1.97536745 6.34786708 0 6 C0 4.02 0 2.04 0 0 Z " fill="#30696C" transform="translate(2,11)"/>
<path d="M0 0 C0.66 0.33 1.32 0.66 2 1 C1.67 2.65 1.34 4.3 1 6 C1.99 6.33 2.98 6.66 4 7 C3.67 8.32 3.34 9.64 3 11 C2.34 11 1.68 11 1 11 C0.67 11.99 0.34 12.98 0 14 C-3.96 14 -7.92 14 -12 14 C-12.49230769 7.6 -12.49230769 7.6 -10 4.5625 C-9.34 4.046875 -8.68 3.53125 -8 3 C-7.34 3.33 -6.68 3.66 -6 4 C-6.33 4.99 -6.66 5.98 -7 7 C-5.35 7.33 -3.7 7.66 -2 8 C-1.855625 6.865625 -1.71125 5.73125 -1.5625 4.5625 C-1 1 -1 1 0 0 Z " fill="#2B9FAA" transform="translate(12,20)"/>
<path d="M0 0 C0.99 0 1.98 0 3 0 C3.08082094 1.95766281 3.13910778 3.91626728 3.1875 5.875 C3.22230469 6.96554688 3.25710937 8.05609375 3.29296875 9.1796875 C3.19628906 10.11039063 3.09960938 11.04109375 3 12 C-0.22791555 14.1519437 -1.28400809 14.20086443 -5 14 C-5.33 13.01 -5.66 12.02 -6 11 C-7.98 11 -9.96 11 -12 11 C-11.67 9.35 -11.34 7.7 -11 6 C-2.42857143 4.71428571 -2.42857143 4.71428571 1 6 C0.67 4.02 0.34 2.04 0 0 Z " fill="#36A2AF" transform="translate(29,17)"/>
<path d="M0 0 C4.62 0 9.24 0 14 0 C14.33 0.99 14.66 1.98 15 3 C13.35 3 11.7 3 10 3 C9.34 4.32 8.68 5.64 8 7 C7.67 5.68 7.34 4.36 7 3 C5.02 3.33 3.04 3.66 1 4 C1.33 5.98 1.66 7.96 2 10 C0.35 10.66 -1.3 11.32 -3 12 C-3.99 11.01 -4.98 10.02 -6 9 C-4.68 8.01 -3.36 7.02 -2 6 C-2.33 5.34 -2.66 4.68 -3 4 C-2.34 4 -1.68 4 -1 4 C-0.67 2.68 -0.34 1.36 0 0 Z " fill="#34ACB7" transform="translate(9,0)"/>
<path d="M0 0 C0.66 0 1.32 0 2 0 C2 1.65 2 3.3 2 5 C1.01 5 0.02 5 -1 5 C-0.67 6.98 -0.34 8.96 0 11 C-3.3 11 -6.6 11 -10 11 C-10 9.68 -10 8.36 -10 7 C-9.030625 6.54625 -8.06125 6.0925 -7.0625 5.625 C-3.92920418 4.34213779 -3.92920418 4.34213779 -3 2 C-2.01 2 -1.02 2 0 2 C0 1.34 0 0.68 0 0 Z " fill="#293B3E" transform="translate(30,12)"/>
<path d="M0 0 C0.66 0 1.32 0 2 0 C2.33 1.98 2.66 3.96 3 6 C5.47266765 5.65555119 5.47266765 5.65555119 8 5 C8.33 4.34 8.66 3.68 9 3 C8.67 4.65 8.34 6.3 8 8 C0.48520179 10.52197309 0.48520179 10.52197309 -3.15625 9.2421875 C-5.0625 8.125 -5.0625 8.125 -8 6 C-8 5.01 -8 4.02 -8 3 C-7.21625 3.165 -6.4325 3.33 -5.625 3.5 C-3.11791961 4.0623707 -3.11791961 4.0623707 -1 4 C-0.67 2.68 -0.34 1.36 0 0 Z " fill="#233138" transform="translate(16,8)"/>
<path d="M0 0 C1.98 0 3.96 0 6 0 C6 0.99 6 1.98 6 3 C7.32 3.66 8.64 4.32 10 5 C8.92598892 7.91517292 8.22189824 9.77810176 6 12 C5.7525 11.195625 5.505 10.39125 5.25 9.5625 C4.27761141 6.828919 4.27761141 6.828919 1.875 6.1875 C1.25625 6.125625 0.6375 6.06375 0 6 C0 4.02 0 2.04 0 0 Z " fill="#254149" transform="translate(2,11)"/>
<path d="M0 0 C0.66 0.33 1.32 0.66 2 1 C1.67 2.65 1.34 4.3 1 6 C1.99 6.33 2.98 6.66 4 7 C3.67 8.32 3.34 9.64 3 11 C2.34 11 1.68 11 1 11 C0.67 11.99 0.34 12.98 0 14 C-1.32 13.67 -2.64 13.34 -4 13 C-4 11.35 -4 9.7 -4 8 C-3.34 8 -2.68 8 -2 8 C-1.855625 6.865625 -1.71125 5.73125 -1.5625 4.5625 C-1 1 -1 1 0 0 Z " fill="#54AAA0" transform="translate(12,20)"/>
<path d="M0 0 C0.19491452 1.45736087 0.38069358 2.91594593 0.5625 4.375 C0.66691406 5.18710938 0.77132813 5.99921875 0.87890625 6.8359375 C1 9 1 9 0 11 C-2.91517292 9.92598892 -4.77810176 9.22189824 -7 7 C-6.34 7 -5.68 7 -5 7 C-5.33 5.02 -5.66 3.04 -6 1 C-4 0 -4 0 0 0 Z " fill="#1F3B3E" transform="translate(16,3)"/>
<path d="M0 0 C1.98 0 3.96 0 6 0 C7.0625 1.875 7.0625 1.875 8 4 C7.67 4.66 7.34 5.32 7 6 C6.01 6 5.02 6 4 6 C3.67 6.99 3.34 7.98 3 9 C2.01 9.33 1.02 9.66 0 10 C0 6.7 0 3.4 0 0 Z " fill="#38A5B2" transform="translate(0,17)"/>
<path d="M0 0 C1.65 0.33 3.3 0.66 5 1 C5.33 2.32 5.66 3.64 6 5 C2.7 6.32 -0.6 7.64 -4 9 C-4 6.69 -4 4.38 -4 2 C-3.67 2.99 -3.34 3.98 -3 5 C-2.01 5 -1.02 5 0 5 C0 3.35 0 1.7 0 0 Z " fill="#1E4B5B" transform="translate(22,6)"/>
<path d="M0 0 C4.875 0.875 4.875 0.875 6 2 C6.375 4.375 6.375 4.375 6 7 C3.625 8.875 3.625 8.875 1 10 C0.34 9.67 -0.32 9.34 -1 9 C-0.01 8.67 0.98 8.34 2 8 C1.67 7.4225 1.34 6.845 1 6.25 C0 4 0 4 0 0 Z " fill="#51A69A" transform="translate(26,3)"/>
<path d="M0 0 C1.4783226 2.95664519 1.06032783 5.74229737 1 9 C0.34 8.67 -0.32 8.34 -1 8 C-1 7.34 -1 6.68 -1 6 C-2.98 6 -4.96 6 -7 6 C-6.67 4.35 -6.34 2.7 -6 1 C-4.02 0.67 -2.04 0.34 0 0 Z " fill="#387F8C" transform="translate(24,22)"/>
<path d="M0 0 C0.99 0 1.98 0 3 0 C2 3 2 3 0.5 4.375 C-1.43309736 6.46918881 -1.62452796 8.22150692 -2 11 C-3.65 10.67 -5.3 10.34 -7 10 C-6.52727227 5.74545047 -4.03562624 3.80795427 -1 1 C-0.67 0.67 -0.34 0.34 0 0 Z " fill="#326661" transform="translate(12,17)"/>
<path d="M0 0 C1.65 0 3.3 0 5 0 C6.04449911 3.13349732 5.93423645 3.98968256 5 7 C3.68 7 2.36 7 1 7 C0.67 4.69 0.34 2.38 0 0 Z " fill="#4CB1C3" transform="translate(24,24)"/>
<path d="M0 0 C1.32 0.33 2.64 0.66 4 1 C4.33 2.65 4.66 4.3 5 6 C3.35 6.66 1.7 7.32 0 8 C-0.99 7.01 -1.98 6.02 -3 5 C-1.68 4.01 -0.36 3.02 1 2 C0.67 1.34 0.34 0.68 0 0 Z " fill="#4FA197" transform="translate(6,4)"/>
<path d="M0 0 C2.375 0.25 2.375 0.25 5 1 C6.125 3 6.125 3 7 5 C7.99 5.33 8.98 5.66 10 6 C7 7 7 7 5.17578125 6.22265625 C3.45052083 5.1484375 1.72526042 4.07421875 0 3 C0 2.01 0 1.02 0 0 Z " fill="#0A1D2A" transform="translate(8,11)"/>
<path d="M0 0 C-1.07401108 2.91517292 -1.77810176 4.77810176 -4 7 C-4.433125 5.824375 -4.433125 5.824375 -4.875 4.625 C-5.84912254 1.90328368 -5.84912254 1.90328368 -8 0 C-5.13822943 -1.43088528 -3.06624227 -0.59991697 0 0 Z " fill="#2C626D" transform="translate(12,16)"/>
<path d="M0 0 C1.98 0 3.96 0 6 0 C6.33 0.99 6.66 1.98 7 3 C5.35 3 3.7 3 2 3 C1.34 4.32 0.68 5.64 0 7 C-0.93423645 3.98968256 -1.04449911 3.13349732 0 0 Z " fill="#56B5C6" transform="translate(17,0)"/>
<path d="M0 0 C1.31571603 0.2547514 2.62760376 0.52934141 3.9375 0.8125 C4.66839844 0.96332031 5.39929688 1.11414063 6.15234375 1.26953125 C6.76207031 1.51058594 7.37179688 1.75164063 8 2 C8.33 2.99 8.66 3.98 9 5 C6.03 5 3.06 5 0 5 C0 3.35 0 1.7 0 0 Z " fill="#020102" transform="translate(0,29)"/>
<path d="M0 0 C0 1.65 0 3.3 0 5 C-2.97 5 -5.94 5 -9 5 C-8.67 4.01 -8.34 3.02 -8 2 C-2.10526316 0 -2.10526316 0 0 0 Z " fill="#010101" transform="translate(32,29)"/>
<path d="M0 0 C2.97 0 5.94 0 9 0 C9 1.65 9 3.3 9 5 C7.68428397 4.7452486 6.37239624 4.47065859 5.0625 4.1875 C4.33160156 4.03667969 3.60070312 3.88585937 2.84765625 3.73046875 C2.23792969 3.48941406 1.62820312 3.24835938 1 3 C0.67 2.01 0.34 1.02 0 0 Z " fill="#030102" transform="translate(23,0)"/>
<path d="M0 0 C2.97 0 5.94 0 9 0 C8.67 0.99 8.34 1.98 8 3 C6.15234375 3.73046875 6.15234375 3.73046875 3.9375 4.1875 C3.20402344 4.34605469 2.47054688 4.50460938 1.71484375 4.66796875 C0.86599609 4.83232422 0.86599609 4.83232422 0 5 C0 3.35 0 1.7 0 0 Z " fill="#030102" transform="translate(0,0)"/>
<path d="M0 0 C0.66 0.33 1.32 0.66 2 1 C1.67 2.65 1.34 4.3 1 6 C1.66 6.33 2.32 6.66 3 7 C-0.465 8.485 -0.465 8.485 -4 10 C-4 9.34 -4 8.68 -4 8 C-3.34 8 -2.68 8 -2 8 C-1.855625 6.865625 -1.71125 5.73125 -1.5625 4.5625 C-1 1 -1 1 0 0 Z " fill="#448E87" transform="translate(12,20)"/>
<path d="M0 0 C2 2 2 2 2 6 C0.35 5.67 -1.3 5.34 -3 5 C-2.625 3.0625 -2.625 3.0625 -2 1 C-1.34 0.67 -0.68 0.34 0 0 Z " fill="#1D4F61" transform="translate(28,17)"/>
<path d="M0 0 C2.475 0.99 2.475 0.99 5 2 C5 2.99 5 3.98 5 5 C3.35 5.33 1.7 5.66 0 6 C0 4.02 0 2.04 0 0 Z " fill="#2B3E40" transform="translate(23,6)"/>
<path d="M0 0 C2.0625 0.4375 2.0625 0.4375 4 1 C2.25 4.875 2.25 4.875 0 6 C-0.33 6.99 -0.66 7.98 -1 9 C-1.09765625 2.84765625 -1.09765625 2.84765625 -1 1 C-0.67 0.67 -0.34 0.34 0 0 Z " fill="#2D666A" transform="translate(18,17)"/>
<path d="M0 0 C1.4783226 2.95664519 1.06032783 5.74229737 1 9 C-1.34058637 6.87219421 -2.70700306 4.88437779 -4 2 C-2.68 1.34 -1.36 0.68 0 0 Z " fill="#368DA3" transform="translate(24,22)"/>
<path d="M0 0 C0.33 1.32 0.66 2.64 1 4 C-2 6 -2 6 -4.1875 5.625 C-4.785625 5.41875 -5.38375 5.2125 -6 5 C-5.34 5 -4.68 5 -4 5 C-4 4.34 -4 3.68 -4 3 C-2.68 2.67 -1.36 2.34 0 2 C0 1.34 0 0.68 0 0 Z " fill="#0E1F2C" transform="translate(24,11)"/>
<path d="M0 0 C-0.125 1.875 -0.125 1.875 -1 4 C-4.0625 5.25 -4.0625 5.25 -7 6 C-6.67 5.34 -6.34 4.68 -6 4 C-5.34 4 -4.68 4 -4 4 C-4 3.01 -4 2.02 -4 1 C-2 0 -2 0 0 0 Z " fill="#40837A" transform="translate(32,7)"/>
<path d="M0 0 C2.0625 0.4375 2.0625 0.4375 4 1 C2.768606 3.46278801 1.21935077 4.42497687 -1 6 C-1.042721 4.33388095 -1.04063832 2.66617115 -1 1 C-0.67 0.67 -0.34 0.34 0 0 Z " fill="#438A82" transform="translate(1,4)"/>
<path d="M0 0 C0.33 0.66 0.66 1.32 1 2 C2.65 2 4.3 2 6 2 C5.01 3.485 5.01 3.485 4 5 C2.68 5 1.36 5 0 5 C0 3.35 0 1.7 0 0 Z " fill="#2E5653" transform="translate(16,26)"/>
<path d="M0 0 C0 1.98 0 3.96 0 6 C-0.99 6.33 -1.98 6.66 -3 7 C-3 5.02 -3 3.04 -3 1 C-1 0 -1 0 0 0 Z " fill="#39B0BA" transform="translate(32,23)"/>
<path d="M0 0 C0.66 0.33 1.32 0.66 2 1 C2 2.65 2 4.3 2 6 C0.68 5.67 -0.64 5.34 -2 5 C-1.125 1.125 -1.125 1.125 0 0 Z " fill="#071823" transform="translate(7,22)"/>
<path d="M0 0 C2.475 0.99 2.475 0.99 5 2 C5 2.99 5 3.98 5 5 C3.68 4.67 2.36 4.34 1 4 C0.67 2.68 0.34 1.36 0 0 Z " fill="#4FB6C7" transform="translate(0,17)"/>
</svg>
